<?xml version="1.0" standalone="no"?>
<!DOCTYPE svg PUBLIC "-//W3C//DTD SVG 20010904//EN"
 "http://www.w3.org/TR/2001/REC-SVG-20010904/DTD/svg10.dtd">
<svg version="1.0" xmlns="http://www.w3.org/2000/svg"
 width="690.000000pt" height="592.000000pt" viewBox="0 0 690.000000 592.000000"
 preserveAspectRatio="xMidYMid meet">

<g transform="translate(0.000000,592.000000) scale(0.100000,-0.100000)"
fill="#000000" stroke="none">
<path d="M1277 5683 c-127 -197 -146 -228 -139 -234 4 -3 99 -39 212 -79 113
-40 247 -88 298 -107 87 -32 95 -33 112 -18 14 13 19 13 23 3 4 -10 8 -10 16
2 9 12 11 9 11 -16 0 -28 4 -33 38 -42 20 -6 66 -22 102 -35 111 -41 182 -67
255 -92 39 -13 144 -52 235 -85 91 -34 179 -66 196 -71 38 -11 84 3 84 27 0
12 6 15 24 10 14 -3 28 -2 31 4 3 6 17 7 31 4 14 -4 24 -2 24 4 0 6 17 14 38
17 57 9 112 27 112 37 0 5 -4 18 -10 28 -13 24 17 31 80 20 63 -10 114 -35
188 -87 86 -61 91 -47 5 16 -132 99 -229 125 -379 104 -69 -10 -84 -8 -84 15
0 8 3 12 6 9 12 -12 46 42 39 63 -5 16 -10 18 -26 10 -15 -8 -19 -7 -19 4 0 8
5 16 10 18 6 2 12 13 14 25 3 12 9 31 15 42 18 33 13 40 -21 28 -24 -9 -32 -9
-35 1 -6 17 -49 15 -67 -4 -15 -14 -17 -13 -28 13 -8 19 -12 23 -15 12 -3 -11
-12 -14 -34 -11 -30 4 -31 8 -12 59 5 13 -189 80 -267 92 -42 7 -46 6 -47 -13
-1 -53 -4 -63 -18 -63 -13 0 -13 3 0 23 8 13 11 25 6 29 -5 3 -11 -1 -14 -7
-2 -7 -8 -9 -13 -5 -5 5 -2 14 8 21 10 7 13 17 9 25 -6 9 -11 10 -15 2 -4 -7
-15 -7 -30 -1 -26 9 -27 6 -12 -37 4 -13 12 -23 17 -23 5 0 8 -10 8 -22 -1
-19 -2 -19 -6 -5 -3 11 -11 16 -19 13 -8 -3 -14 -1 -14 4 0 6 -8 10 -17 10
-14 0 -15 2 -4 9 9 6 10 11 2 15 -6 4 -15 4 -21 1 -5 -3 -10 -2 -10 4 0 5 5
12 10 14 6 3 5 4 -2 3 -7 -2 -13 -11 -13 -22 0 -13 -8 -20 -24 -22 -14 -2 -35
-11 -48 -19 -22 -14 -25 -14 -36 1 -13 17 -47 13 -47 -5 0 -5 -8 -9 -17 -9
-14 0 -15 2 -4 9 10 7 11 13 2 30 -14 25 -27 27 -35 5 -4 -9 -13 -14 -21 -10
-9 3 -15 0 -15 -10 0 -8 -7 -17 -15 -20 -8 -4 -15 -19 -15 -34 0 -16 -4 -31
-9 -34 -14 -9 -41 4 -41 20 0 13 -12 18 -32 15 -14 -2 -8 16 10 31 9 9 26 18
37 21 12 3 14 5 5 6 -22 1 -50 53 -43 79 7 27 14 28 36 2 25 -29 40 -25 35 10
-4 29 5 40 17 20 3 -5 13 -10 21 -10 8 0 12 5 9 11 -4 6 0 9 10 7 10 -2 20 3
22 10 3 6 -3 12 -12 12 -10 0 -15 5 -12 13 3 7 -3 19 -13 25 -14 9 -19 8 -24
-5 -5 -11 -2 -14 11 -9 15 6 15 4 -2 -14 -22 -24 -26 -21 -28 21 -2 29 -6 34
-37 42 -19 4 -69 10 -110 12 -53 3 -78 9 -86 20 -9 12 -13 13 -17 3 -2 -7 -8
-1 -12 13 -4 18 -15 29 -31 32 -13 2 -21 0 -18 -4 3 -5 0 -9 -6 -9 -6 0 -8 -4
-5 -10 3 -5 -1 -10 -9 -10 -8 0 -18 5 -21 10 -3 6 -15 10 -27 10 -15 0 -19 5
-15 20 6 24 -10 37 -26 21 -8 -8 -8 -11 2 -11 7 0 9 -5 6 -10 -9 -15 -35 8
-29 24 7 18 -25 29 -42 15 -11 -9 -14 -8 -14 5 0 39 -35 9 -93 -81z m326 -48
c-3 -9 -8 -14 -10 -11 -3 3 -2 9 2 15 9 16 15 13 8 -4z m-140 -8 c17 5 20 3
10 -7 -14 -15 -43 -6 -42 12 0 9 2 9 5 2 3 -7 15 -9 27 -7z m332 -26 c-3 -6
-11 -11 -16 -11 -5 0 -4 6 3 14 14 16 24 13 13 -3z m-328 -63 c-3 -8 -6 -5 -6
6 -1 11 2 17 5 13 3 -3 4 -12 1 -19z m183 12 c0 -5 -5 -10 -11 -10 -5 0 -7 5
-4 10 3 6 8 10 11 10 2 0 4 -4 4 -10z m193 -17 c-3 -7 -9 -10 -14 -7 -14 8
-11 21 5 21 8 0 12 -6 9 -14z m-398 -3 c3 -5 1 -10 -4 -10 -6 0 -11 5 -11 10
0 6 2 10 4 10 3 0 8 -4 11 -10z m316 -23 c-12 -12 -31 0 -31 19 0 12 3 12 20
2 11 -7 16 -16 11 -21z m-33 -56 c2 -6 -2 -10 -10 -9 -7 2 -12 -3 -10 -9 1 -7
-2 -13 -7 -13 -12 0 -19 21 -14 37 5 14 36 10 41 -6z m512 10 c0 -17 -18 -21
-24 -6 -3 9 0 15 9 15 8 0 15 -4 15 -9z m-450 -16 c0 -2 -7 -5 -15 -9 -9 -3
-15 0 -15 9 0 9 6 12 15 9 8 -4 15 -7 15 -9z m691 -65 c6 0 7 -4 4 -10 -16
-26 -40 6 -27 38 6 15 7 14 10 -5 2 -13 8 -23 13 -23z m-461 15 c0 -8 -4 -15
-10 -15 -5 0 -7 7 -4 15 4 8 8 15 10 15 2 0 4 -7 4 -15z m362 3 c-9 -9 -15 -9
-24 0 -9 9 -7 12 12 12 19 0 21 -3 12 -12z m-249 -17 c4 -1 7 -9 7 -18 0 -13
-3 -14 -11 -6 -6 6 -18 9 -25 6 -8 -3 -14 1 -14 10 0 9 7 14 18 12 9 -2 20 -4
25 -4z m417 -13 c0 -4 -9 -8 -20 -8 -11 0 -20 4 -20 9 0 6 9 9 20 8 11 -1 20
-5 20 -9z m-385 -8 c3 -5 1 -10 -4 -10 -6 0 -11 5 -11 10 0 6 2 10 4 10 3 0 8
-4 11 -10z m-148 -15 c0 -8 -7 -15 -14 -15 -21 0 -11 -23 11 -26 29 -4 32 -14
7 -21 -16 -4 -19 -8 -10 -14 8 -4 10 -11 7 -14 -12 -13 -30 7 -25 27 3 11 0
21 -9 25 -21 8 -17 33 9 43 12 5 22 9 23 9 0 1 1 -6 1 -14z m186 9 c3 -4 2
-15 -3 -24 -7 -13 -6 -20 6 -24 25 -9 7 -24 -23 -19 -22 4 -25 2 -13 -6 13
-10 13 -12 0 -20 -35 -23 -40 18 -7 66 22 34 29 38 40 27z m297 -34 c0 -16 -4
-30 -10 -30 -5 0 -8 10 -6 23 3 12 5 25 5 30 2 21 11 3 11 -23z m-360 -1 c0
-14 -17 -10 -23 5 -4 10 -1 13 9 9 7 -3 14 -9 14 -14z m-400 1 c0 -5 -2 -10
-4 -10 -3 0 -8 5 -11 10 -3 6 -1 10 4 10 6 0 11 -4 11 -10z m635 -30 c-3 -5
-1 -10 5 -10 6 0 8 -5 5 -10 -4 -6 -11 -8 -16 -5 -12 8 -11 35 2 35 5 0 7 -4
4 -10z m100 -41 c-4 -5 -13 -9 -21 -9 -12 0 -12 2 -2 14 14 15 32 11 23 -5z
m154 -19 c0 -10 -3 -8 -9 5 -12 27 -12 43 0 25 5 -8 9 -22 9 -30z m48 17 c7
-5 10 -13 8 -18 -6 -9 -45 20 -45 34 0 8 14 2 37 -16z m-307 -2 c0 -1 -6 -7
-13 -13 -10 -8 -13 -6 -13 7 0 11 6 17 13 14 7 -3 13 -6 13 -8z m210 5 c0 -5
-7 -10 -16 -10 -12 0 -15 -7 -12 -25 3 -14 -1 -30 -8 -36 -16 -13 -16 -13 -19
20 -3 30 12 48 53 60 1 1 2 -3 2 -9z m173 -44 c4 -10 -4 -15 -26 -19 -39 -6
-44 -2 -27 18 16 19 46 20 53 1z m-625 -28 c-3 -7 -13 -15 -24 -17 -16 -3 -17
-1 -5 13 16 19 34 21 29 4z m640 -145 c-4 -34 -38 -46 -38 -14 0 14 5 19 15
15 11 -5 13 -2 9 10 -3 9 -1 16 6 16 6 0 10 -11 8 -27z m-88 -43 c0 -13 -37
-13 -45 0 -3 6 -3 15 0 20 7 12 45 -5 45 -20z"/>
<path d="M1940 5591 c0 -6 5 -13 10 -16 6 -3 10 -21 10 -38 0 -24 6 -35 24
-43 14 -7 30 -8 38 -3 18 12 51 11 43 -1 -3 -5 3 -10 14 -10 27 0 27 26 1 40
-11 6 -20 17 -20 24 0 8 -8 16 -17 20 -10 3 -24 9 -30 12 -8 4 -13 -3 -14 -18
-1 -17 -3 -18 -6 -5 -2 9 -9 17 -14 17 -6 0 -8 4 -5 9 3 5 -1 12 -10 15 -21 8
-24 8 -24 -3z"/>
<path d="M2154 5521 c3 -5 -1 -11 -9 -15 -25 -9 -17 -23 15 -23 17 0 30 4 30
9 0 4 -4 8 -10 8 -5 0 -10 7 -10 15 0 8 -5 15 -11 15 -5 0 -8 -4 -5 -9z"/>
<path d="M1835 5440 c4 -6 11 -8 16 -5 14 9 11 15 -7 15 -8 0 -12 -5 -9 -10z"/>
<path d="M1865 5410 c-3 -5 -2 -10 4 -10 5 0 13 5 16 10 3 6 2 10 -4 10 -5 0
-13 -4 -16 -10z"/>
<path d="M2625 5370 c3 -5 8 -10 11 -10 2 0 4 5 4 10 0 6 -5 10 -11 10 -5 0
-7 -4 -4 -10z"/>
<path d="M2670 5360 c0 -5 1 -10 3 -10 1 0 17 -4 35 -9 26 -8 32 -7 32 5 0 11
-6 13 -20 9 -11 -4 -20 -2 -20 4 0 6 -7 11 -15 11 -8 0 -15 -4 -15 -10z"/>
<path d="M2750 5340 c0 -5 5 -10 10 -10 6 0 10 5 10 10 0 6 -4 10 -10 10 -5 0
-10 -4 -10 -10z"/>
<path d="M2856 5208 c-9 -29 -2 -44 22 -46 23 -2 24 -1 10 15 -9 10 -13 24
-11 31 3 6 0 12 -6 12 -7 0 -13 -6 -15 -12z"/>
<path d="M337 5199 c-21 -12 -22 -29 -1 -29 8 0 13 4 10 9 -4 5 0 11 6 14 7 2
11 7 8 10 -3 3 -13 1 -23 -4z"/>
<path d="M140 5178 c0 -13 32 -239 70 -503 39 -264 111 -760 160 -1102 111
-771 109 -756 123 -765 7 -4 109 -73 227 -155 293 -203 721 -498 1595 -1100
407 -280 981 -676 1275 -879 294 -204 590 -407 657 -453 l121 -83 254 218
c139 119 289 250 333 289 44 39 125 110 181 158 l101 86 12 103 c19 153 3 138
144 138 l122 0 325 281 c179 154 334 289 344 299 13 13 25 51 37 117 10 54 58
321 108 593 49 272 111 610 136 750 26 140 87 474 136 742 49 267 89 493 89
501 0 10 -54 -16 -157 -75 -306 -175 -585 -329 -593 -326 -9 3 -77 94 -230
302 l-95 129 -6 -34 c-4 -18 -6 -36 -4 -39 7 -11 17 -290 10 -290 -3 0 -15 5
-26 10 -13 7 -19 7 -19 1 0 -6 11 -13 25 -17 25 -6 25 -8 25 -110 l0 -103 -32
4 c-26 4 -29 3 -13 -4 11 -5 28 -12 38 -15 10 -3 16 -10 13 -15 -3 -5 -65 -42
-138 -84 -417 -235 -600 -338 -658 -369 -36 -19 -94 -51 -128 -71 -35 -21 -70
-37 -77 -37 -11 0 -188 74 -315 132 -25 11 -81 35 -125 53 -44 18 -226 95
-405 173 -179 77 -557 240 -840 362 -1018 439 -1248 539 -1464 634 -121 53
-222 98 -224 100 -2 3 2 14 8 26 17 31 4 37 -24 11 l-23 -22 -84 39 c-46 21
-106 47 -133 57 -27 10 -57 26 -67 36 -11 11 -24 19 -30 19 -17 0 14 27 41 35
14 4 22 4 18 0 -4 -4 0 -14 8 -22 11 -12 24 -13 52 -7 20 4 69 7 107 6 144 -2
152 -4 166 -29 7 -12 18 -23 26 -23 16 0 17 12 1 28 -9 9 -7 13 5 18 9 3 17
15 17 25 0 15 -7 19 -34 19 -24 0 -36 5 -40 18 -5 15 -14 16 -63 12 -32 -3
-58 -10 -61 -17 -2 -7 1 -13 8 -13 6 0 9 -4 6 -8 -3 -5 -29 -5 -58 -2 -57 8
-71 5 -48 -10 8 -6 11 -10 5 -10 -15 0 -31 13 -37 31 -4 9 -28 24 -54 33 -57
19 -74 20 -74 3 0 -10 -25 -12 -104 -11 -85 2 -114 7 -155 26 -28 12 -51 26
-51 30 0 5 -9 8 -19 8 -27 0 -111 37 -111 49 0 6 -6 8 -13 5 -11 -4 -115 37
-243 97 -51 24 -54 24 -54 -3z"/>
<path d="M390 5196 c0 -2 7 -7 16 -10 8 -3 12 -2 9 4 -6 10 -25 14 -25 6z"/>
<path d="M3430 5105 c0 -16 27 -32 37 -21 7 7 -16 36 -28 36 -5 0 -9 -7 -9
-15z"/>
<path d="M3376 5094 c-9 -24 -7 -28 9 -14 17 14 20 30 6 30 -5 0 -12 -7 -15
-16z"/>
<path d="M3550 5085 c8 -10 9 -15 1 -15 -6 0 -11 -4 -11 -10 0 -5 7 -10 15
-10 8 0 13 -6 11 -12 -1 -7 -1 -10 1 -5 3 4 13 7 24 7 10 0 19 2 19 5 0 11
-35 42 -54 49 -16 5 -17 4 -6 -9z"/>
<path d="M3500 5080 c0 -5 4 -10 9 -10 6 0 13 5 16 10 3 6 -1 10 -9 10 -9 0
-16 -4 -16 -10z"/>
<path d="M3360 5048 c0 -9 5 -20 10 -23 13 -8 13 5 0 25 -8 13 -10 13 -10 -2z"/>
<path d="M913 5033 c-33 -6 -28 -22 5 -18 15 2 30 4 35 4 4 1 7 6 7 11 0 10
-8 11 -47 3z"/>
<path d="M1280 5030 c8 -5 20 -10 25 -10 6 0 3 5 -5 10 -8 5 -19 10 -25 10 -5
0 -3 -5 5 -10z"/>
<path d="M3475 5031 c-9 -16 18 -23 46 -12 16 6 18 10 7 10 -9 1 -23 4 -31 7
-8 3 -18 1 -22 -5z"/>
<path d="M708 5013 c7 -3 16 -2 19 1 4 3 -2 6 -13 5 -11 0 -14 -3 -6 -6z"/>
<path d="M3440 4985 c0 -8 5 -15 10 -15 6 0 10 7 10 15 0 8 -4 15 -10 15 -5 0
-10 -7 -10 -15z"/>
<path d="M1419 4976 c7 -8 20 -13 29 -11 9 2 19 4 22 4 12 3 -27 21 -44 21
-15 0 -16 -3 -7 -14z"/>
<path d="M3477 4983 c-4 -3 -7 -12 -7 -19 0 -11 5 -11 25 -2 13 6 22 15 19 19
-6 11 -28 12 -37 2z"/>
<path d="M1058 4973 c7 -3 16 -2 19 1 4 3 -2 6 -13 5 -11 0 -14 -3 -6 -6z"/>
<path d="M3537 4969 c7 -7 15 -10 18 -7 3 3 -2 9 -12 12 -14 6 -15 5 -6 -5z"/>
<path d="M1385 4960 c3 -5 13 -10 21 -10 8 0 12 5 9 10 -3 6 -13 10 -21 10 -8
0 -12 -4 -9 -10z"/>
<path d="M3330 4926 c0 -9 5 -16 10 -16 6 0 10 4 10 9 0 6 -4 13 -10 16 -5 3
-10 -1 -10 -9z"/>
<path d="M3476 4921 c-4 -6 4 -16 19 -23 22 -10 28 -9 35 2 12 19 4 26 -14 11
-11 -10 -16 -9 -24 5 -6 11 -11 13 -16 5z"/>
<path d="M1495 4910 c-3 -4 9 -13 26 -19 17 -6 28 -15 24 -21 -3 -5 -2 -10 3
-10 13 0 36 29 29 36 -10 11 -77 22 -82 14z"/>
<path d="M3330 4889 c0 -11 27 -12 34 -1 2 4 -4 9 -15 9 -10 1 -19 -2 -19 -8z"/>
<path d="M3640 4892 c0 -6 -3 -17 -6 -26 -4 -12 0 -16 15 -16 16 0 20 5 18 22
-4 22 -27 39 -27 20z"/>
<path d="M3730 4886 c0 -8 4 -17 9 -20 11 -7 33 18 24 27 -12 12 -33 7 -33 -7z"/>
<path d="M940 4880 c-9 -6 -10 -10 -3 -10 6 0 15 5 18 10 8 12 4 12 -15 0z"/>
<path d="M1406 4871 c-9 -14 53 -36 66 -23 8 8 4 14 -16 22 -33 12 -43 13 -50
1z"/>
<path d="M3475 4859 c-4 -6 -5 -13 -2 -16 7 -7 27 6 27 18 0 12 -17 12 -25 -2z"/>
<path d="M3295 4850 c-3 -5 -1 -10 4 -10 6 0 11 5 11 10 0 6 -2 10 -4 10 -3 0
-8 -4 -11 -10z"/>
<path d="M3675 4840 c-3 -6 -1 -9 7 -8 7 2 12 -5 12 -14 -1 -12 5 -18 20 -18
15 0 17 3 8 9 -7 4 -12 14 -10 21 4 17 -28 25 -37 10z"/>
<path d="M3286 4822 c-3 -6 -1 -14 5 -17 14 -9 20 -2 10 14 -6 8 -11 9 -15 3z"/>
<path d="M3370 4744 c0 -8 5 -12 10 -9 6 3 10 10 10 16 0 5 -4 9 -10 9 -5 0
-10 -7 -10 -16z"/>
<path d="M3563 4733 c-15 -5 -17 -23 -4 -23 5 0 11 7 15 15 3 8 4 15 3 14 -1
0 -8 -3 -14 -6z"/>
<path d="M3596 4714 c-8 -21 -1 -28 19 -20 9 3 15 11 13 18 -7 19 -25 20 -32
2z"/>
<path d="M3360 4680 c0 -5 5 -10 10 -10 6 0 10 5 10 10 0 6 -4 10 -10 10 -5 0
-10 -4 -10 -10z"/>
<path d="M3530 4680 c0 -5 9 -14 19 -20 25 -13 31 -13 31 0 0 6 -7 10 -16 10
-8 0 -12 5 -9 10 3 6 -1 10 -9 10 -9 0 -16 -4 -16 -10z"/>
<path d="M3703 4675 c0 -8 4 -15 9 -15 4 0 8 7 8 15 0 8 -4 15 -8 15 -5 0 -9
-7 -9 -15z"/>
<path d="M3446 4651 c10 -10 23 -16 27 -14 5 3 0 11 -10 19 -27 20 -39 17 -17
-5z"/>
<path d="M3641 4654 c0 -11 3 -14 6 -6 3 7 2 16 -1 19 -3 4 -6 -2 -5 -13z"/>
<path d="M4730 4639 c0 -5 5 -7 10 -4 6 3 10 8 10 11 0 2 -4 4 -10 4 -5 0 -10
-5 -10 -11z"/>
<path d="M3545 4631 c-3 -5 -1 -12 5 -16 5 -3 10 1 10 9 0 18 -6 21 -15 7z"/>
<path d="M3595 4610 c-3 -5 1 -13 10 -16 22 -9 29 1 11 15 -10 8 -16 9 -21 1z"/>
<path d="M3690 4576 c0 -2 7 -6 15 -10 8 -3 15 -1 15 4 0 6 -7 10 -15 10 -8 0
-15 -2 -15 -4z"/>
<path d="M4952 4561 c2 -7 7 -12 11 -12 12 1 9 15 -3 20 -7 2 -11 -2 -8 -8z"/>
<path d="M5217 4499 c7 -7 15 -10 18 -7 3 3 -2 9 -12 12 -14 6 -15 5 -6 -5z"/>
<path d="M4225 4490 c-8 -13 4 -32 16 -25 12 8 12 35 0 35 -6 0 -13 -4 -16
-10z"/>
<path d="M4061 4477 c-6 -8 -8 -17 -5 -20 10 -9 45 13 39 24 -9 13 -21 11 -34
-4z"/>
<path d="M5031 4464 c0 -11 3 -14 6 -6 3 7 2 16 -1 19 -3 4 -6 -2 -5 -13z"/>
<path d="M5180 4460 c0 -5 5 -10 11 -10 5 0 7 5 4 10 -3 6 -8 10 -11 10 -2 0
-4 -4 -4 -10z"/>
<path d="M4671 4436 c-13 -15 -7 -36 9 -36 12 0 22 32 12 42 -5 5 -14 2 -21
-6z"/>
<path d="M5230 4406 c0 -10 9 -16 21 -16 24 0 21 23 -4 28 -10 2 -17 -3 -17
-12z"/>
<path d="M4875 4330 c3 -5 15 -10 26 -10 11 0 17 5 14 10 -3 6 -15 10 -26 10
-11 0 -17 -4 -14 -10z"/>
<path d="M5400 4310 c0 -5 7 -10 15 -10 8 0 15 5 15 10 0 6 -7 10 -15 10 -8 0
-15 -4 -15 -10z"/>
<path d="M4521 4294 c0 -11 3 -14 6 -6 3 7 2 16 -1 19 -3 4 -6 -2 -5 -13z"/>
<path d="M4980 4302 c0 -4 18 -13 40 -19 50 -13 51 -8 4 12 -42 17 -44 18 -44
7z"/>
<path d="M4637 4283 c-11 -10 -8 -35 3 -28 13 8 72 -24 65 -35 -4 -6 -2 -10 4
-10 5 0 13 5 17 12 9 14 -34 51 -49 41 -5 -3 -15 1 -22 10 -7 9 -15 14 -18 10z"/>
<path d="M4625 4220 c-3 -5 -2 -10 4 -10 5 0 13 5 16 10 3 6 2 10 -4 10 -5 0
-13 -4 -16 -10z"/>
<path d="M4910 4220 c0 -5 10 -10 23 -10 18 0 19 2 7 10 -19 13 -30 13 -30 0z"/>
<path d="M5282 4209 c2 -6 8 -10 13 -10 5 0 11 4 13 10 2 6 -4 11 -13 11 -9 0
-15 -5 -13 -11z"/>
<path d="M4885 4180 c4 -6 11 -8 16 -5 14 9 11 15 -7 15 -8 0 -12 -5 -9 -10z"/>
<path d="M4936 4174 c-9 -8 -13 -20 -10 -26 5 -7 11 -5 19 5 7 10 20 17 29 17
10 0 14 5 11 10 -9 15 -31 12 -49 -6z"/>
<path d="M5115 4161 c8 -26 -20 -30 -29 -4 -6 15 -8 15 -17 3 -7 -13 -10 -13
-18 -1 -11 17 -23 -1 -15 -23 5 -12 2 -15 -10 -10 -9 3 -16 1 -16 -5 0 -6 4
-11 9 -11 5 0 22 -5 38 -12 15 -6 33 -12 38 -13 6 0 23 -6 38 -13 39 -16 40
-16 20 14 -13 20 -14 30 -5 44 9 15 7 21 -14 35 -25 16 -26 16 -19 -4z m15
-52 c0 -11 -27 -12 -34 0 -3 4 -3 11 0 14 8 8 34 -3 34 -14z"/>
<path d="M5231 4164 c0 -11 3 -14 6 -6 3 7 2 16 -1 19 -3 4 -6 -2 -5 -13z"/>
<path d="M5335 4170 c3 -5 13 -10 21 -10 8 0 14 5 14 10 0 6 -9 10 -21 10 -11
0 -17 -4 -14 -10z"/>
<path d="M4890 4145 c0 -8 2 -15 4 -15 2 0 6 7 10 15 3 8 1 15 -4 15 -6 0 -10
-7 -10 -15z"/>
<path d="M4970 4150 c0 -5 5 -10 10 -10 6 0 10 5 10 10 0 6 -4 10 -10 10 -5 0
-10 -4 -10 -10z"/>
<path d="M5390 4150 c0 -5 5 -10 10 -10 6 0 10 5 10 10 0 6 -4 10 -10 10 -5 0
-10 -4 -10 -10z"/>
<path d="M4840 4134 c0 -8 5 -12 10 -9 6 4 8 11 5 16 -9 14 -15 11 -15 -7z"/>
<path d="M5300 4131 c0 -6 5 -13 10 -16 6 -3 10 1 10 9 0 9 -4 16 -10 16 -5 0
-10 -4 -10 -9z"/>
<path d="M4920 4109 c0 -5 5 -7 10 -4 6 3 10 8 10 11 0 2 -4 4 -10 4 -5 0 -10
-5 -10 -11z"/>
<path d="M5192 4098 c3 -7 13 -15 22 -16 12 -3 17 1 14 10 -3 7 -13 15 -22 16
-12 3 -17 -1 -14 -10z"/>
<path d="M5258 4103 c6 -2 18 -2 25 0 6 3 1 5 -13 5 -14 0 -19 -2 -12 -5z"/>
<path d="M5390 4100 c0 -5 5 -10 10 -10 6 0 10 5 10 10 0 6 -4 10 -10 10 -5 0
-10 -4 -10 -10z"/>
<path d="M4958 4083 c7 -3 16 -2 19 1 4 3 -2 6 -13 5 -11 0 -14 -3 -6 -6z"/>
<path d="M5016 4072 c-3 -6 -1 -14 5 -17 15 -10 25 3 12 16 -7 7 -13 7 -17 1z"/>
<path d="M5050 4070 c0 -5 5 -10 11 -10 5 0 7 5 4 10 -3 6 -8 10 -11 10 -2 0
-4 -4 -4 -10z"/>
<path d="M5250 4040 c0 -5 7 -10 15 -10 8 0 15 -4 15 -10 0 -5 5 -10 10 -10 7
0 7 6 0 20 -11 21 -40 28 -40 10z"/>
<path d="M5126 4032 c-6 -10 53 -36 62 -28 3 4 -4 9 -16 13 -12 3 -22 9 -22
14 0 11 -17 12 -24 1z"/>
<path d="M5560 4030 c0 -5 5 -10 10 -10 6 0 10 5 10 10 0 6 -4 10 -10 10 -5 0
-10 -4 -10 -10z"/>
<path d="M5355 4019 c-10 -15 3 -25 16 -12 7 7 7 13 1 17 -6 3 -14 1 -17 -5z"/>
<path d="M5200 4009 c0 -24 26 -31 42 -12 11 15 11 16 -6 10 -12 -5 -23 -3
-28 5 -6 10 -8 9 -8 -3z"/>
<path d="M5531 3977 c-10 -13 -7 -18 20 -32 29 -15 33 -15 47 -1 15 15 14 16
-7 16 -13 0 -29 7 -35 16 -11 14 -13 14 -25 1z"/>
<path d="M5483 3923 c-7 -2 -13 -11 -13 -20 0 -20 34 -12 38 10 3 17 -3 20
-25 10z"/>
<path d="M5522 3900 c-11 -17 -10 -20 7 -20 16 0 31 18 31 36 0 12 -27 1 -38
-16z"/>
</g>
</svg>
